<mxfile host="65bd71144e">
    <diagram id="WkzuzJuz80rkRivc9DpX" name="Page-1">
        <mxGraphModel dx="1497" dy="999" grid="0" gridSize="10" guides="1" tooltips="1" connect="1" arrows="1" fold="1" page="0" pageScale="1" pageWidth="850" pageHeight="1100" math="0" shadow="0">
            <root>
                <mxCell id="0"/>
                <mxCell id="1" parent="0"/>
                <mxCell id="2" value="routeur de bordure +vpn" style="shape=mxgraph.cisco.routers.router;sketch=0;html=1;pointerEvents=1;dashed=0;fillColor=#036897;strokeColor=default;strokeWidth=2;verticalLabelPosition=bottom;verticalAlign=top;align=center;outlineConnect=0;" vertex="1" parent="1">
                    <mxGeometry x="152" y="-241" width="78" height="53" as="geometry"/>
                </mxCell>
                <mxCell id="8" value="internet" style="ellipse;shape=cloud;whiteSpace=wrap;html=1;" vertex="1" parent="1">
                    <mxGeometry x="-32" y="-266" width="120" height="80" as="geometry"/>
                </mxCell>
                <mxCell id="22" value="coeur de réseeau" style="shape=mxgraph.cisco.switches.workgroup_switch;sketch=0;html=1;pointerEvents=1;dashed=0;fillColor=#036897;strokeColor=#ffffff;strokeWidth=2;verticalLabelPosition=bottom;verticalAlign=top;align=center;outlineConnect=0;" vertex="1" parent="1">
                    <mxGeometry x="393" y="-102" width="101" height="50" as="geometry"/>
                </mxCell>
                <mxCell id="23" value="" style="group;fillColor=#dae8fc;strokeColor=#6c8ebf;" vertex="1" connectable="0" parent="1">
                    <mxGeometry x="588" y="24" width="370" height="250" as="geometry"/>
                </mxCell>
                <mxCell id="20" value="&lt;b&gt;&lt;font style=&quot;font-size: 15px;&quot;&gt;zone serveur&lt;/font&gt;&lt;/b&gt;" style="rounded=0;whiteSpace=wrap;html=1;align=right;fillStyle=solid;fillColor=#fff2cc;strokeColor=#d6b656;" vertex="1" parent="23">
                    <mxGeometry width="370" height="250" as="geometry"/>
                </mxCell>
                <mxCell id="12" value="serveur linux apache" style="shape=mxgraph.cisco.servers.standard_host;sketch=0;html=1;pointerEvents=1;dashed=0;fillColor=#036897;strokeColor=#ffffff;strokeWidth=2;verticalLabelPosition=bottom;verticalAlign=top;align=center;outlineConnect=0;" vertex="1" parent="23">
                    <mxGeometry x="90" y="24" width="43" height="62" as="geometry"/>
                </mxCell>
                <mxCell id="16" value="windows server ad + dhcp + dns" style="shape=mxgraph.cisco.servers.standard_host;sketch=0;html=1;pointerEvents=1;dashed=0;fillColor=#036897;strokeColor=#ffffff;strokeWidth=2;verticalLabelPosition=bottom;verticalAlign=top;align=center;outlineConnect=0;" vertex="1" parent="23">
                    <mxGeometry x="95" y="141" width="43" height="62" as="geometry"/>
                </mxCell>
                <mxCell id="44" value="Fichier partagé" style="sketch=0;pointerEvents=1;shadow=0;dashed=0;html=1;strokeColor=none;fillColor=#505050;labelPosition=center;verticalLabelPosition=bottom;verticalAlign=top;outlineConnect=0;align=center;shape=mxgraph.office.services.network_file_share_service;" vertex="1" parent="23">
                    <mxGeometry x="267" y="150" width="55" height="53" as="geometry"/>
                </mxCell>
                <mxCell id="24" value="" style="group;fillColor=#dae8fc;strokeColor=#6c8ebf;fillStyle=auto;" vertex="1" connectable="0" parent="1">
                    <mxGeometry x="565" y="-218" width="397" height="180" as="geometry"/>
                </mxCell>
                <mxCell id="21" value="&lt;font size=&quot;1&quot; style=&quot;&quot;&gt;&lt;b style=&quot;font-size: 15px;&quot;&gt;zone station&lt;/b&gt;&lt;/font&gt;" style="rounded=0;whiteSpace=wrap;html=1;fillColor=#dae8fc;strokeColor=#6c8ebf;align=right;" vertex="1" parent="24">
                    <mxGeometry width="397" height="180" as="geometry"/>
                </mxCell>
                <mxCell id="14" value="linux ST" style="shape=mxgraph.cisco.computers_and_peripherals.pc;html=1;pointerEvents=1;dashed=0;fillColor=#036897;strokeColor=#ffffff;strokeWidth=2;verticalLabelPosition=bottom;verticalAlign=top;align=center;outlineConnect=0;" vertex="1" parent="24">
                    <mxGeometry x="56" y="27" width="78" height="70" as="geometry"/>
                </mxCell>
                <mxCell id="15" value="windows ST" style="shape=mxgraph.cisco.computers_and_peripherals.pc;html=1;pointerEvents=1;dashed=0;fillColor=#036897;strokeColor=#ffffff;strokeWidth=2;verticalLabelPosition=bottom;verticalAlign=top;align=center;outlineConnect=0;" vertex="1" parent="24">
                    <mxGeometry x="184" y="19" width="78" height="70" as="geometry"/>
                </mxCell>
                <mxCell id="25" value="" style="group;fillColor=#FFFF00;strokeColor=#D79B00;glass=0;gradientColor=none;" vertex="1" connectable="0" parent="1">
                    <mxGeometry x="75" y="73" width="260" height="260" as="geometry"/>
                </mxCell>
                <mxCell id="19" value="&lt;b&gt;&lt;font style=&quot;font-size: 24px;&quot;&gt;DMZ&lt;/font&gt;&lt;/b&gt;" style="whiteSpace=wrap;html=1;aspect=fixed;align=right;fillColor=#FFFF00;strokeColor=#d6b656;" vertex="1" parent="25">
                    <mxGeometry width="260" height="260" as="geometry"/>
                </mxCell>
                <mxCell id="4" value="windows server IIS" style="shape=mxgraph.cisco.servers.standard_host;sketch=0;html=1;pointerEvents=1;dashed=0;fillColor=#036897;strokeColor=#ffffff;strokeWidth=2;verticalLabelPosition=bottom;verticalAlign=top;align=center;outlineConnect=0;" vertex="1" parent="25">
                    <mxGeometry x="99" y="74" width="43" height="62" as="geometry"/>
                </mxCell>
                <mxCell id="28" value="dmz externe" style="shape=mxgraph.cisco.routers.router;sketch=0;html=1;pointerEvents=1;dashed=0;fillColor=#036897;strokeColor=#ffffff;strokeWidth=2;verticalLabelPosition=bottom;verticalAlign=top;align=center;outlineConnect=0;" vertex="1" parent="1">
                    <mxGeometry x="109" y="-84" width="78" height="53" as="geometry"/>
                </mxCell>
                <mxCell id="29" value="" style="endArrow=none;html=1;exitX=0.88;exitY=0.9;exitDx=0;exitDy=0;exitPerimeter=0;entryX=0.5;entryY=0;entryDx=0;entryDy=0;entryPerimeter=0;" edge="1" parent="1" source="2" target="22">
                    <mxGeometry width="50" height="50" relative="1" as="geometry">
                        <mxPoint x="579" y="101" as="sourcePoint"/>
                        <mxPoint x="629" y="51" as="targetPoint"/>
                    </mxGeometry>
                </mxCell>
                <mxCell id="39" value="vmbr2" style="edgeLabel;html=1;align=center;verticalAlign=middle;resizable=0;points=[];" vertex="1" connectable="0" parent="29">
                    <mxGeometry x="-0.2571" y="3" relative="1" as="geometry">
                        <mxPoint x="-1" as="offset"/>
                    </mxGeometry>
                </mxCell>
                <mxCell id="30" value="" style="endArrow=none;html=1;exitX=0.5;exitY=0;exitDx=0;exitDy=0;exitPerimeter=0;" edge="1" parent="1" source="28" target="2">
                    <mxGeometry width="50" height="50" relative="1" as="geometry">
                        <mxPoint x="579" y="101" as="sourcePoint"/>
                        <mxPoint x="629" y="51" as="targetPoint"/>
                    </mxGeometry>
                </mxCell>
                <mxCell id="42" value="vmbr1" style="edgeLabel;html=1;align=center;verticalAlign=middle;resizable=0;points=[];" vertex="1" connectable="0" parent="30">
                    <mxGeometry x="0.3056" y="-1" relative="1" as="geometry">
                        <mxPoint as="offset"/>
                    </mxGeometry>
                </mxCell>
                <mxCell id="32" value="" style="endArrow=none;html=1;entryX=0.5;entryY=1;entryDx=0;entryDy=0;entryPerimeter=0;exitX=0.554;exitY=0;exitDx=0;exitDy=0;exitPerimeter=0;" edge="1" parent="1" source="19" target="28">
                    <mxGeometry width="50" height="50" relative="1" as="geometry">
                        <mxPoint x="579" y="101" as="sourcePoint"/>
                        <mxPoint x="629" y="51" as="targetPoint"/>
                    </mxGeometry>
                </mxCell>
                <mxCell id="33" value="vlan2" style="endArrow=none;html=1;exitX=0.98;exitY=0.5;exitDx=0;exitDy=0;exitPerimeter=0;entryX=0;entryY=0.45;entryDx=0;entryDy=0;entryPerimeter=0;" edge="1" parent="1" source="22" target="21">
                    <mxGeometry width="50" height="50" relative="1" as="geometry">
                        <mxPoint x="579" y="101" as="sourcePoint"/>
                        <mxPoint x="758" y="-90" as="targetPoint"/>
                    </mxGeometry>
                </mxCell>
                <mxCell id="34" value="vlan1" style="endArrow=none;html=1;entryX=0.87;entryY=0.74;entryDx=0;entryDy=0;entryPerimeter=0;" edge="1" parent="1" source="20" target="22">
                    <mxGeometry width="50" height="50" relative="1" as="geometry">
                        <mxPoint x="577" y="126" as="sourcePoint"/>
                        <mxPoint x="629" y="51" as="targetPoint"/>
                    </mxGeometry>
                </mxCell>
                <mxCell id="35" value="" style="endArrow=none;html=1;entryX=0;entryY=0.5;entryDx=0;entryDy=0;entryPerimeter=0;exitX=0.875;exitY=0.5;exitDx=0;exitDy=0;exitPerimeter=0;" edge="1" parent="1" source="8" target="2">
                    <mxGeometry width="50" height="50" relative="1" as="geometry">
                        <mxPoint x="579" y="101" as="sourcePoint"/>
                        <mxPoint x="629" y="51" as="targetPoint"/>
                    </mxGeometry>
                </mxCell>
                <mxCell id="37" value="dmz interne" style="endArrow=none;html=1;entryX=0;entryY=0.98;entryDx=0;entryDy=0;entryPerimeter=0;exitX=1;exitY=0;exitDx=0;exitDy=0;" edge="1" parent="1" source="19" target="22">
                    <mxGeometry width="50" height="50" relative="1" as="geometry">
                        <mxPoint x="379" y="101" as="sourcePoint"/>
                        <mxPoint x="429" y="51" as="targetPoint"/>
                    </mxGeometry>
                </mxCell>
            </root>
        </mxGraphModel>
    </diagram>
</mxfile>